<?xml version="1.0" encoding="UTF-8" standalone="no"?>
<!-- Creator: CorelDRAW -->

<svg
   xml:space="preserve"
   width="6.82666in"
   height="6.82666in"
   style="shape-rendering:geometricPrecision; text-rendering:geometricPrecision; image-rendering:optimizeQuality; fill-rule:evenodd; clip-rule:evenodd"
   viewBox="0 0 6.82666 6.82666"
   version="1.1"
   id="svg5"
   sodipodi:docname="logo.svg"
   inkscape:version="1.3.2 (091e20e, 2023-11-25, custom)"
   xmlns:inkscape="http://www.inkscape.org/namespaces/inkscape"
   xmlns:sodipodi="http://sodipodi.sourceforge.net/DTD/sodipodi-0.dtd"
   xmlns="http://www.w3.org/2000/svg"
   xmlns:svg="http://www.w3.org/2000/svg"><sodipodi:namedview
   id="namedview5"
   pagecolor="#ffffff"
   bordercolor="#000000"
   borderopacity="0.25"
   inkscape:showpageshadow="2"
   inkscape:pageopacity="0.0"
   inkscape:pagecheckerboard="0"
   inkscape:deskcolor="#d1d1d1"
   inkscape:document-units="in"
   inkscape:zoom="1.3717664"
   inkscape:cx="327.31519"
   inkscape:cy="327.67969"
   inkscape:window-width="1920"
   inkscape:window-height="1137"
   inkscape:window-x="-8"
   inkscape:window-y="-8"
   inkscape:window-maximized="1"
   inkscape:current-layer="Layer_x0020_1" />
 <defs
   id="defs1">
  <style
   type="text/css"
   id="style1">
   <![CDATA[
    .fil5 {fill:none}
    .fil4 {fill:#949494}
    .fil2 {fill:#B38E85}
    .fil3 {fill:#E7E9EE}
    .fil1 {fill:#F45A52}
    .fil0 {fill:#333333;fill-rule:nonzero}
   ]]>
  </style>
 </defs>
 <g
   id="Layer_x0020_1"
   inkscape:label="Layer 1">
  <metadata
   id="CorelCorpID_0Corel-Layer" />
  <g
   id="_625017608">
   <g
   id="g1">
    <path
   id="_625017968"
   class="fil0"
   d="M1.59557 3.36371l3.63553 0c0.109469,0 0.208945,0.0447323 0.281,0.116787 0.0720551,0.0720591 0.116783,0.171531 0.116783,0.281004l0 1.41099c0,0.0441811 -0.0358189,0.08 -0.08,0.08l-4.2711 0c-0.0441811,0 -0.08,-0.0358189 -0.08,-0.08l0 -1.41099c0,-0.109476 0.0447323,-0.208949 0.116787,-0.281004 0.0720551,-0.0720551 0.171524,-0.116787 0.281,-0.116787zm3.63553 0.16l-3.63553 0c-0.0653071,0 -0.12474,0.0267795 -0.167874,0.0699134 -0.0431339,0.0431339 -0.0699134,0.102571 -0.0699134,0.167878l0 1.33099 4.1111 0 0 -1.33099c0,-0.0653071 -0.0267795,-0.124744 -0.0699094,-0.167878 -0.0431339,-0.0431339 -0.102571,-0.0699134 -0.167874,-0.0699134z" />
    <path
   id="_625017632"
   class="fil0"
   d="M1.01333 5.44104l4.8 0 0 -0.188543 -4.8 0 0 0.188543zm4.88 0.16l-4.96 0c-0.0441811,0 -0.08,-0.0358189 -0.08,-0.08l0 -0.348543c0,-0.0441811 0.0358189,-0.08 0.08,-0.08l4.96 0c0.0441811,0 0.08,0.0358189 0.08,0.08l0 0.348543c0,0.0441811 -0.0358189,0.08 -0.08,0.08z" />
    <path
   id="_625018160"
   class="fil0"
   d="M2.05204 2.00536l2.72259 0c0.109173,0 0.208358,0.0446024 0.280209,0.116457 0.0718543,0.0718504 0.116457,0.171035 0.116457,0.280209l0 1.04169c0,0.0441811 -0.0358189,0.08 -0.08,0.08l-3.35592 0c-0.0441811,0 -0.08,-0.0358189 -0.08,-0.08l0 -1.04169c0,-0.109173 0.0446024,-0.208358 0.116457,-0.280209 0.0718504,-0.0718543 0.171035,-0.116457 0.280209,-0.116457zm2.72259 0.16l-2.72259 0c-0.065,0 -0.124154,0.0266496 -0.167083,0.0695827 -0.0429331,0.0429291 -0.0695827,0.102083 -0.0695827,0.167083l0 0.961689 3.19592 0 0 -0.961689c0,-0.065 -0.0266496,-0.124154 -0.0695827,-0.167083 -0.0429291,-0.0429331 -0.102083,-0.0695827 -0.167083,-0.0695827z" />
    <path
   id="_625018112"
   class="fil0"
   d="M1.19778 4.23269c0,0.0441811 0.0358189,0.08 0.08,0.08 0.0441811,0 0.08,-0.0358189 0.08,-0.08l0 -0.0406614c0,-0.0619685 0.0252323,-0.118169 0.0658701,-0.158783 0.0408228,-0.0408031 0.0971811,-0.0661339 0.159209,-0.0661339 0.0620276,0 0.118386,0.0253307 0.159209,0.0661339 0.0406378,0.0406142 0.0658701,0.096815 0.0658701,0.158783l0 0.0813189c0,0.10574 0.0434173,0.202008 0.113362,0.271913 0.0697598,0.0697244 0.165953,0.113008 0.271717,0.113008 0.105764,0 0.201953,-0.0432835 0.271713,-0.113008 0.0699449,-0.0699055 0.113366,-0.166173 0.113366,-0.271913l0 -0.0813189c0,-0.0619646 0.0252323,-0.118169 0.0658701,-0.158783 0.0408228,-0.0408031 0.0971811,-0.0661339 0.159209,-0.0661339l3.93701e-006 0c0.0620236,0 0.118386,0.0253307 0.159209,0.0661339 0.0406378,0.0406142 0.0658661,0.0968189 0.0658661,0.158783l0 0.0813189c0,0.105736 0.0434213,0.202004 0.113366,0.271913 0.0697598,0.0697244 0.165949,0.113008 0.271713,0.113008l3.93701e-006 0c0.105764,0 0.201953,-0.0432835 0.271713,-0.113008 0.0699449,-0.0699094 0.113366,-0.166177 0.113366,-0.271913l0 -0.0813189c0,-0.0619646 0.0252283,-0.118169 0.0658661,-0.158783 0.0408228,-0.0408031 0.097185,-0.0661339 0.159209,-0.0661339l3.93701e-006 0c0.0620276,0 0.118386,0.0253307 0.159209,0.0661339 0.0406378,0.0406142 0.0658701,0.0968189 0.0658701,0.158783l0 0.0813189c0,0.105736 0.0434173,0.202004 0.113362,0.271913 0.0697598,0.0697244 0.165949,0.113008 0.271713,0.113008l3.93701e-006 0c0.105764,0 0.201957,-0.0432835 0.271717,-0.113008 0.0699449,-0.0699055 0.113362,-0.166173 0.113362,-0.271913l0 -0.0813189c0,-0.0619685 0.0252323,-0.118169 0.0658701,-0.158783 0.0408228,-0.0408031 0.0971811,-0.0661339 0.159209,-0.0661339 0.0620276,0 0.118386,0.0253307 0.159209,0.0661339 0.0406378,0.0406142 0.0658701,0.096815 0.0658701,0.158783l0 0.0813189c0,0.0441811 0.0358189,0.08 0.08,0.08 0.0441811,0 0.08,-0.0358189 0.08,-0.08l0 -0.0813189c0,-0.10574 -0.0434213,-0.202004 -0.113366,-0.271909 -0.0697598,-0.0697244 -0.165949,-0.113008 -0.271713,-0.113008 -0.105764,0 -0.201953,0.0432835 -0.271713,0.113008 -0.0699449,0.0699055 -0.113366,0.166169 -0.113366,0.271909l0 0.0813189c0,0.0619685 -0.0252283,0.118173 -0.0658661,0.158787 -0.0408228,0.0408031 -0.097185,0.0661339 -0.159213,0.0661339l-3.93701e-006 0c-0.0620276,0 -0.118386,-0.0253307 -0.159209,-0.0661339 -0.0406378,-0.0406181 -0.0658661,-0.0968189 -0.0658661,-0.158787l0 -0.0813189c0,-0.105736 -0.0434213,-0.202004 -0.113366,-0.271909 -0.0697598,-0.0697244 -0.165949,-0.113008 -0.271713,-0.113008l-3.93701e-006 0c-0.10576,0 -0.201953,0.0432835 -0.271713,0.113008 -0.0699409,0.0699055 -0.113362,0.166177 -0.113362,0.271909l0 0.0813189c0,0.0619685 -0.0252323,0.118169 -0.0658701,0.158787 -0.0408228,0.0408031 -0.0971811,0.0661339 -0.159209,0.0661339l-3.93701e-006 0c-0.0620276,0 -0.118386,-0.0253307 -0.159209,-0.0661339 -0.0406378,-0.0406181 -0.0658701,-0.0968189 -0.0658701,-0.158787l0 -0.0813189c0,-0.105732 -0.0434213,-0.202004 -0.113362,-0.271909 -0.0697598,-0.0697244 -0.165953,-0.113008 -0.271713,-0.113008l-3.93701e-006 0c-0.105764,0 -0.201953,0.0432835 -0.271713,0.113008 -0.0699449,0.0699055 -0.113366,0.166173 -0.113366,0.271909l0 0.0813189c0,0.0619685 -0.0252323,0.118173 -0.0658701,0.158787 -0.0408228,0.0408031 -0.0971811,0.0661339 -0.159209,0.0661339 -0.0620276,0 -0.11839,-0.0253307 -0.159213,-0.0661339 -0.0406378,-0.0406142 -0.0658661,-0.0968189 -0.0658661,-0.158787l0 -0.0813189c0,-0.10574 -0.0434213,-0.202004 -0.113366,-0.271909 -0.0697598,-0.0697244 -0.165949,-0.113008 -0.271713,-0.113008 -0.105764,0 -0.201953,0.0432835 -0.271713,0.113008 -0.0699449,0.0699055 -0.113366,0.166169 -0.113366,0.271909l0 0.0406614z" />
    <path
   id="_625017560"
   class="fil0"
   d="M1.65537 2.73346c0,0.0441811 0.0358189,0.08 0.08,0.08 0.0441811,0 0.08,-0.0358189 0.08,-0.08l0 -0.0320157c0,-0.0441693 0.0179961,-0.0842835 0.0469764,-0.113315 0.028815,-0.0288583 0.0687165,-0.0467795 0.112732,-0.0467795l3.93701e-006 0c0.0440118,0 0.0839173,0.0179213 0.112728,0.0467795 0.0289803,0.0290276 0.0469764,0.0691417 0.0469764,0.113315l0 0.0640315c0,0.087874 0.0359488,0.167819 0.0938504,0.225815 0.0580748,0.0581654 0.138035,0.0942756 0.225858,0.0942756l3.93701e-006 0c0.0878189,0 0.167783,-0.0361063 0.225854,-0.0942756 0.0579094,-0.0579961 0.0938504,-0.137941 0.0938504,-0.225815l0 -0.0640315c0,-0.0441693 0.0179961,-0.0842835 0.0469764,-0.113315 0.028815,-0.0288583 0.0687165,-0.0467795 0.112732,-0.0467795l3.93701e-006 0c0.0440197,0 0.0839173,0.0179213 0.112732,0.0467795 0.0289803,0.0290315 0.0469764,0.0691457 0.0469764,0.113315l0 0.0640315c0,0.087874 0.0359409,0.167819 0.0938504,0.225815 0.0580709,0.0581654 0.138035,0.0942756 0.225854,0.0942756l3.93701e-006 0c0.0878228,0 0.167783,-0.0361102 0.225858,-0.0942756 0.0579016,-0.0579961 0.0938504,-0.137941 0.0938504,-0.225815l0 -0.0640315c0,-0.0441732 0.0179961,-0.0842874 0.0469764,-0.113315 0.028811,-0.0288583 0.0687165,-0.0467795 0.112728,-0.0467795l3.93701e-006 0c0.0440157,0 0.0839173,0.0179213 0.112732,0.0467795 0.0289803,0.0290315 0.0469764,0.0691457 0.0469764,0.113315l0 0.0640315c0,0.087874 0.0359488,0.167819 0.0938504,0.225815 0.0580787,0.0581732 0.138039,0.0942756 0.225858,0.0942756 0.0878228,0 0.167783,-0.0361102 0.225858,-0.0942756 0.0579016,-0.0579961 0.0938504,-0.137941 0.0938504,-0.225815l0 -0.0640315c0,-0.0441732 0.0179961,-0.0842874 0.0469764,-0.113315 0.028815,-0.0288583 0.0687126,-0.0467795 0.112732,-0.0467795 0.0440157,0 0.0839173,0.0179213 0.112732,0.0467795 0.0289803,0.0290315 0.0469764,0.0691457 0.0469764,0.113315l0 0.0640315c0,0.0441811 0.0358189,0.08 0.08,0.08 0.0441811,0 0.08,-0.0358189 0.08,-0.08l0 -0.0640315c0,-0.0878701 -0.0359488,-0.167815 -0.0938504,-0.225819 -0.0580748,-0.0581654 -0.138035,-0.0942756 -0.225858,-0.0942756 -0.0878189,0 -0.167783,0.0361102 -0.225858,0.0942756 -0.0579016,0.0579961 -0.0938504,0.137945 -0.0938504,0.225819l0 0.0640315c0,0.0441732 -0.0179961,0.0842835 -0.0469764,0.113311 -0.028815,0.0288583 -0.0687165,0.0467795 -0.112732,0.0467795 -0.0440157,0 -0.0839173,-0.0179173 -0.112732,-0.0467795 -0.0289803,-0.0290276 -0.0469764,-0.0691378 -0.0469764,-0.113311l0 -0.0640315c0,-0.0878701 -0.0359488,-0.167815 -0.0938504,-0.225819 -0.0580748,-0.0581654 -0.138035,-0.0942756 -0.225858,-0.0942756l-3.93701e-006 0c-0.087815,0 -0.167783,0.0361063 -0.225854,0.0942756 -0.0579016,0.0579961 -0.0938504,0.137945 -0.0938504,0.225819l0 0.0640315c0,0.0441732 -0.0179961,0.0842835 -0.0469764,0.113311 -0.028815,0.0288583 -0.0687165,0.0467795 -0.112732,0.0467795l-3.93701e-006 0c-0.0440157,0 -0.0839173,-0.0179213 -0.112728,-0.0467795 -0.0289843,-0.0290276 -0.0469764,-0.0691417 -0.0469764,-0.113311l0 -0.0640315c0,-0.0878701 -0.0359488,-0.167815 -0.0938504,-0.225819 -0.0580748,-0.0581654 -0.138039,-0.0942756 -0.225858,-0.0942756l-3.93701e-006 0c-0.0878228,0 -0.167783,0.0361102 -0.225858,0.0942756 -0.0579016,0.0580039 -0.0938504,0.137949 -0.0938504,0.225819l0 0.0640315c0,0.0441693 -0.0179921,0.0842835 -0.0469764,0.113311 -0.028811,0.0288583 -0.0687126,0.0467795 -0.112728,0.0467795l-3.93701e-006 0c-0.0440157,0 -0.0839173,-0.0179213 -0.112732,-0.0467795 -0.0289803,-0.0290276 -0.0469764,-0.0691378 -0.0469764,-0.113311l0 -0.0640315c0,-0.087874 -0.0359488,-0.167823 -0.0938504,-0.225819 -0.0580709,-0.0581693 -0.138039,-0.0942756 -0.225854,-0.0942756l-3.93701e-006 0c-0.0878228,0 -0.167783,0.0361102 -0.225858,0.0942756 -0.0579016,0.0580039 -0.0938504,0.137949 -0.0938504,0.225819l0 0.0320157z" />
   </g>
   <path
   id="_625017728"
   class="fil0"
   d="M3.80086 1.40342c0.0496299,0.0801299 0.0751811,0.181657 0.071752,0.283252 -0.00330709,0.0979646 -0.0333937,0.197146 -0.0945906,0.278839 -0.0788622,0.105276 -0.190378,0.171 -0.306917,0.192146 -0.118429,0.0214882 -0.242118,-0.00298819 -0.342961,-0.0785197 -0.100858,-0.0755512 -0.159154,-0.187508 -0.17185,-0.307425 -0.0124291,-0.117445 0.0193583,-0.242799 0.098311,-0.348201 0.0611063,-0.0815787 0.144807,-0.13876 0.235035,-0.169898 0.0947756,-0.0327087 0.197433,-0.0367362 0.289346,-0.0102126l7.87402e-005 -0.000275591c0.0313268,0.00904724 0.0528583,0.0355787 0.057063,0.0659213 0.00460236,0.0248071 0.0105472,0.0411142 0.0191063,0.0475433 0.0100512,0.00755118 0.0308976,0.00946457 0.065685,0.00533071l-7.87402e-006 -7.08661e-005c0.0336142,-0.004 0.0648386,0.0134567 0.0799488,0.0415709zm-0.087626 0.278252c0.00188583,-0.0558583 -0.00837795,-0.110984 -0.0291732,-0.158142 -0.0508346,-0.00129134 -0.0913543,-0.0145748 -0.124449,-0.039437 -0.032185,-0.024185 -0.0537362,-0.0562992 -0.0677362,-0.0963543 -0.0489213,-0.00625591 -0.100941,-0.000559055 -0.150362,0.0164961 -0.0614016,0.021189 -0.118189,0.059874 -0.159406,0.114898 -0.0537874,0.0718031 -0.0754764,0.156866 -0.0670669,0.236327 0.00814961,0.0769921 0.0450433,0.148472 0.108724,0.196173 0.0637087,0.0477205 0.142827,0.0630079 0.219213,0.0491496 0.0782874,-0.0142047 0.153657,-0.0589646 0.207539,-0.130894 0.0404921,-0.0540551 0.0604528,-0.121118 0.0627165,-0.188217z" />
  </g>
  <path
   class="fil1"
   d="M3.71323 1.68167c0.00188583,-0.0558583 -0.00837795,-0.110984 -0.0291732,-0.158142 -0.0508346,-0.00129134 -0.0913543,-0.0145748 -0.124449,-0.039437 -0.032185,-0.024185 -0.0537362,-0.0562992 -0.0677362,-0.0963543 -0.0489213,-0.00625591 -0.100941,-0.000559055 -0.150362,0.0164961 -0.0614016,0.021189 -0.118189,0.059874 -0.159406,0.114898 -0.0537874,0.0718031 -0.0754764,0.156866 -0.0670669,0.236327 0.00814961,0.0769921 0.0450433,0.148472 0.108724,0.196173 0.044937,0.0336614 0.0975394,0.051185 0.151445,0.0537244l0.027626 0c0.0134016,-0.000625984 0.026811,-0.00215748 0.0401417,-0.0045748 0.0782874,-0.0142047 0.153657,-0.0589646 0.207539,-0.130894 0.0404921,-0.0540551 0.0604528,-0.121118 0.0627165,-0.188217z"
   id="path1" />
  <path
   class="fil2"
   d="M4.77463 2.16536l-2.72259 0c-0.065,0 -0.124154,0.0266496 -0.167083,0.0695827 -0.0429331,0.0429291 -0.0695827,0.102083 -0.0695827,0.167083l0 0.0225512c0.0471102,-0.0274646 0.101693,-0.0432205 0.159709,-0.0432205 0.087815,0 0.167783,0.0361063 0.225854,0.0942756 0.0579016,0.0579961 0.0938504,0.137945 0.0938504,0.225819l0 0.0640315c0,0.0441732 0.0179961,0.0842835 0.0469764,0.113311 0.028815,0.0288583 0.0687165,0.0467795 0.112736,0.0467795 0.0440157,0 0.0839173,-0.0179213 0.112728,-0.0467795 0.0289843,-0.0290276 0.0469764,-0.0691417 0.0469764,-0.113311l0 -0.0640315c0,-0.0878701 0.0359488,-0.167815 0.0938504,-0.225819 0.0580748,-0.0581654 0.138035,-0.0942756 0.225862,-0.0942756 0.0878189,0 0.167783,0.0361102 0.225858,0.0942756 0.0579016,0.0580039 0.0938504,0.137949 0.0938504,0.225819l0 0.0640315c0,0.0441693 0.0179921,0.0842835 0.0469764,0.113311 0.028811,0.0288583 0.0687126,0.0467795 0.112732,0.0467795 0.0440157,0 0.0839173,-0.0179213 0.112732,-0.0467795 0.0289803,-0.0290276 0.0469764,-0.0691378 0.0469764,-0.113311l0 -0.0640315c0,-0.087874 0.0359488,-0.167823 0.0938504,-0.225819 0.0580709,-0.0581693 0.138039,-0.0942756 0.225858,-0.0942756 0.0878228,0 0.167783,0.0361102 0.225858,0.0942756 0.0579016,0.0580039 0.0938504,0.137949 0.0938504,0.225819l0 0.0640315c0,0.0441732 0.0179961,0.0842835 0.0469764,0.113311 0.028815,0.0288622 0.0687165,0.0467795 0.112732,0.0467795 0.0440157,0 0.0839173,-0.0179213 0.112732,-0.0467795 0.0289803,-0.0290276 0.0469764,-0.0691378 0.0469764,-0.113311l0 -0.0640315c0,-0.087874 0.0359488,-0.167823 0.0938504,-0.225819 0.0580748,-0.0581654 0.138039,-0.0942756 0.225858,-0.0942756 0.0580157,0 0.112598,0.0157559 0.159709,0.0432205l0 -0.0225512c0,-0.065 -0.0266496,-0.124154 -0.0695827,-0.167083 -0.0429291,-0.0429331 -0.102083,-0.0695827 -0.167083,-0.0695827z"
   id="path2" />
  <path
   class="fil3"
   d="M3.18747 2.9913c-0.0579094,-0.0579961 -0.0938504,-0.137941 -0.0938504,-0.225815l0 -0.0640315c0,-0.0441693 -0.0179961,-0.0842835 -0.0469764,-0.113315 -0.028815,-0.0288583 -0.0687126,-0.0467795 -0.112736,-0.0467795 -0.0440157,0 -0.0839173,0.0179213 -0.112732,0.0467795 -0.0289803,0.0290315 -0.0469764,0.0691457 -0.0469764,0.113315l0 0.0640315c0,0.087874 -0.0359409,0.167819 -0.0938504,0.225815 -0.0580709,0.0581693 -0.138035,0.0942756 -0.225858,0.0942756 -0.0878228,0 -0.167783,-0.0361102 -0.225858,-0.0942756 -0.0579016,-0.0579961 -0.0938504,-0.137941 -0.0938504,-0.225815l0 -0.0640315c0,-0.0441732 -0.0179961,-0.0842874 -0.0469764,-0.113315 -0.028811,-0.0288583 -0.0687165,-0.0467795 -0.112732,-0.0467795 -0.0440157,0 -0.0839173,0.0179213 -0.112732,0.0467795 -0.0287323,0.0287835 -0.0466693,0.0684606 -0.0469724,0.112185l-3.93701e-006 0.00112992 0 0.0320157 3.93701e-006 0.630248 3.19592 0 0 -0.598232 0 -0.0640315c0,-0.0441693 -0.0179961,-0.0842835 -0.0469764,-0.113315 -0.028815,-0.0288583 -0.0687165,-0.0467795 -0.112732,-0.0467795 -0.0440197,0 -0.0839173,0.0179213 -0.112732,0.0467795 -0.0289803,0.0290276 -0.0469764,0.0691417 -0.0469764,0.113315l0 0.0640315c0,0.087874 -0.0359488,0.167819 -0.0938504,0.225815 -0.0580748,0.0581654 -0.138035,0.0942756 -0.225858,0.0942756 -0.0878189,0 -0.16778,-0.0361024 -0.225858,-0.0942756 -0.0579016,-0.0579961 -0.0938504,-0.137941 -0.0938504,-0.225815l0 -0.0640315c0,-0.0441693 -0.0179961,-0.0842835 -0.0469764,-0.113315 -0.028815,-0.0288583 -0.0687165,-0.0467795 -0.112736,-0.0467795 -0.0440118,0 -0.0839173,0.0179213 -0.112728,0.0467795 -0.0289803,0.0290276 -0.0469764,0.0691417 -0.0469764,0.113315l0 0.0640315c0,0.087874 -0.0359488,0.167819 -0.0938504,0.225815 -0.0580748,0.0581654 -0.138035,0.0942756 -0.225862,0.0942756 -0.0878189,0 -0.167783,-0.0361102 -0.225854,-0.0942756z"
   id="path3" />
  <path
   class="fil2"
   d="M5.09129 3.52371l-3.35592 0 -0.139803 0c-0.0653071,0 -0.12474,0.0267795 -0.167874,0.0699134 -0.0431339,0.0431339 -0.0699134,0.102571 -0.0699134,0.167878l0 0.118819c0.0634094,-0.0460079 0.141232,-0.0732087 0.225075,-0.0732087 0.105764,0 0.201953,0.0432835 0.271713,0.113008 0.0699449,0.0699055 0.113366,0.166169 0.113366,0.271909l0 0.0813189c0,0.0619685 0.0252283,0.118173 0.0658661,0.158787 0.0408228,0.0408031 0.097185,0.0661339 0.159213,0.0661339 0.0620276,0 0.118386,-0.0253307 0.159209,-0.0661339 0.0406378,-0.0406142 0.0658701,-0.0968189 0.0658701,-0.158787l0 -0.0813189c0,-0.105736 0.0434213,-0.202004 0.113366,-0.271909 0.0697598,-0.0697244 0.165949,-0.113008 0.271717,-0.113008 0.10576,0 0.201953,0.0432835 0.271713,0.113008 0.0699409,0.0699055 0.113362,0.166177 0.113362,0.271909l0 0.0813189c0,0.0619685 0.0252323,0.118169 0.0658701,0.158787 0.0408228,0.0408031 0.0971811,0.0661339 0.159213,0.0661339 0.0620276,0 0.118386,-0.0253307 0.159209,-0.0661339 0.0406378,-0.0406181 0.0658701,-0.0968189 0.0658701,-0.158787l0 -0.0813189c0,-0.105732 0.0434213,-0.202004 0.113362,-0.271909 0.0697598,-0.0697244 0.165953,-0.113008 0.271717,-0.113008 0.105764,0 0.201953,0.0432835 0.271713,0.113008 0.0699449,0.0699055 0.113366,0.166173 0.113366,0.271909l0 0.0813189c0,0.0619685 0.0252283,0.118169 0.0658661,0.158787 0.0408228,0.0408031 0.0971811,0.0661339 0.159213,0.0661339 0.0620276,0 0.11839,-0.0253307 0.159213,-0.0661339 0.0406378,-0.0406142 0.0658661,-0.0968189 0.0658661,-0.158787l0 -0.0813189c0,-0.10574 0.0434213,-0.202004 0.113366,-0.271909 0.0697598,-0.0697244 0.165949,-0.113008 0.271713,-0.113008 0.0838425,0 0.161665,0.0272008 0.225079,0.0732087l0 -0.118819c0,-0.0653071 -0.0267795,-0.124744 -0.0699094,-0.167878 -0.0431339,-0.0431339 -0.102571,-0.0699134 -0.167874,-0.0699134l-0.139807 0z"
   id="path4" />
  <path
   class="fil3"
   d="M3.14161 4.54526c-0.0699449,-0.0699094 -0.113366,-0.166177 -0.113366,-0.271913l0 -0.0813189c0,-0.0619646 -0.0252283,-0.118169 -0.0658661,-0.158783 -0.0408228,-0.0408031 -0.097185,-0.0661339 -0.159213,-0.0661339 -0.0620276,0 -0.118386,0.0253307 -0.159209,0.0661339 -0.0406378,0.0406142 -0.0658701,0.0968189 -0.0658701,0.158783l0 0.0813189c0,0.10574 -0.0434213,0.202008 -0.113366,0.271913 -0.0697598,0.0697244 -0.165949,0.113008 -0.271713,0.113008 -0.105764,0 -0.201957,-0.0432835 -0.271717,-0.113008 -0.0699449,-0.0699055 -0.113362,-0.166173 -0.113362,-0.271913l0 -0.0813189c0,-0.0619685 -0.0252323,-0.118169 -0.0658701,-0.158783 -0.0408228,-0.0408031 -0.0971811,-0.0661339 -0.159209,-0.0661339 -0.0620276,0 -0.118386,0.0253307 -0.159209,0.0661339 -0.0403465,0.0403228 -0.0655039,0.0960039 -0.0658661,0.157445l-3.93701e-006 0.00133858 0 0.0406614 3.93701e-006 0.859803 4.1111 0 0 -0.819146 0 -0.0813189c0,-0.0619685 -0.0252323,-0.118169 -0.0658701,-0.158783 -0.0408228,-0.0408031 -0.0971811,-0.0661339 -0.159209,-0.0661339 -0.0620276,0 -0.118386,0.0253307 -0.159209,0.0661339 -0.0406378,0.0406142 -0.0658701,0.096815 -0.0658701,0.158783l0 0.0813189c0,0.10574 -0.0434173,0.202008 -0.113362,0.271913 -0.0697598,0.0697244 -0.165953,0.113008 -0.27172,0.113008 -0.105764,0 -0.201953,-0.0432835 -0.271713,-0.113008 -0.0699449,-0.0699094 -0.113362,-0.166177 -0.113362,-0.271913l0 -0.0813189c0,-0.0619646 -0.0252323,-0.118169 -0.0658701,-0.158783 -0.0408228,-0.0408031 -0.0971811,-0.0661339 -0.159213,-0.0661339 -0.0620236,0 -0.118386,0.0253307 -0.159209,0.0661339 -0.0406378,0.0406142 -0.0658661,0.0968189 -0.0658661,0.158783l0 0.0813189c0,0.105736 -0.0434213,0.202004 -0.113366,0.271913 -0.0697598,0.0697244 -0.165949,0.113008 -0.271717,0.113008 -0.105764,0 -0.201953,-0.0432835 -0.271713,-0.113008z"
   id="path5" />
  <polygon
   class="fil4"
   points="5.54888,5.2525 1.27778,5.2525 1.01333,5.2525 1.01333,5.44104 5.81333,5.44104 5.81333,5.2525 "
   id="polygon5" />
 <path
   style="fill:#ff00ff;stroke-width:0.728987"
   d="m 231.45339,279.8035 c -3.95348,-1.12344 -7.28068,-4.08357 -9.18366,-8.1705 -1.42947,-3.06999 -1.73816,-4.9123 -1.74402,-10.40843 -0.0145,-13.57639 -5.91806,-23.9341 -16.75223,-29.39141 -9.01843,-4.54269 -17.79821,-4.65406 -28.0214,-0.35543 -1.29771,0.54566 -1.36095,0.32489 -0.93564,-3.26617 0.86722,-7.32232 5.57948,-14.08672 12.32074,-17.6863 l 3.12844,-1.67046 h 137.41407 137.41406 l 3.12827,1.67038 c 6.64201,3.54658 11.46648,10.472 12.32092,17.68638 0.42531,3.59106 0.36207,3.81183 -0.93564,3.26617 -10.26132,-4.31466 -19.14112,-4.18717 -27.99981,0.40201 -11.08843,5.74427 -16.7667,15.58774 -16.7667,29.06564 0,3.50642 -0.37335,7.49041 -0.82966,8.8533 -3.4268,10.23495 -15.81994,13.94206 -23.64393,7.0725 -4.0691,-3.57271 -5.41287,-6.91399 -5.42754,-13.49556 -0.034,-15.23768 -6.15086,-26.23151 -17.75347,-31.90814 -15.33052,-7.50052 -34.17439,-0.85127 -41.41061,14.61217 -2.01447,4.30485 -2.34705,5.94721 -2.82283,13.93988 -0.44408,7.46043 -0.84955,9.66299 -2.29645,12.47459 -5.21127,10.12649 -19.96045,10.42892 -25.76263,0.52825 -1.65079,-2.81686 -1.96235,-4.41797 -2.46199,-12.65215 -0.50688,-8.35345 -0.83008,-9.9786 -2.83766,-14.26871 -7.22957,-15.44925 -26.06239,-22.14821 -41.3029,-14.69173 -11.7021,5.7253 -17.88406,16.69865 -17.88406,31.74525 0,6.81628 -1.2939,10.09788 -5.40453,13.70706 -3.92753,3.44842 -8.37057,4.41297 -13.54914,2.94141 z"
   id="path6"
   transform="scale(0.01041667)" /><path
   style="fill:#ff00ff;stroke-width:0.728987"
   d="m 204.10114,430.29151 c -10.55457,-3.77754 -14.929,-11.19621 -14.929,-25.31835 0,-4.265 -0.47016,-9.17399 -1.11621,-11.65434 -6.07447,-23.32143 -32.50332,-35.05342 -53.43104,-23.71849 l -3.92356,2.12509 0.2877,-8.53661 c 0.23712,-7.03569 0.57169,-9.07776 1.90287,-11.61453 2.54451,-4.84893 5.71178,-7.97348 10.51604,-10.37419 l 4.44481,-2.2211 h 179.82694 179.82694 l 4.44481,2.2211 c 4.80425,2.40071 7.97152,5.52526 10.51603,10.37419 1.33119,2.53677 1.66575,4.57884 1.90287,11.61453 l 0.28771,8.53661 -3.92356,-2.12509 c -16.33605,-8.84798 -37.62505,-3.68291 -47.83417,11.60537 -4.98735,7.46862 -6.101,11.37032 -6.67389,23.38212 -0.39477,8.27722 -0.82624,11.29 -1.98891,13.8878 -2.1504,4.80469 -5.58724,8.36674 -10.31069,10.68629 -10.65695,5.23336 -23.37537,0.59206 -28.21335,-10.2958 -1.33031,-2.99387 -1.72695,-5.53312 -2.05955,-13.18503 -0.48404,-11.13609 -2.02455,-16.97658 -6.16676,-23.37994 -12.94093,-20.00512 -40.28095,-22.90472 -57.40368,-6.08807 -7.80845,7.66888 -11.26318,16.92713 -11.26318,30.18397 0,8.96996 -1.16875,12.86649 -5.24998,17.50301 -4.46762,5.07548 -9.18186,7.21633 -15.89064,7.21633 -6.70878,0 -11.42303,-2.14085 -15.89064,-7.21633 -4.08123,-4.63652 -5.24999,-8.53305 -5.24999,-17.50301 0,-13.25684 -3.45473,-22.51509 -11.26318,-30.18397 -17.09379,-16.78823 -44.49264,-13.89148 -57.39301,6.06789 -4.15365,6.4265 -5.69313,12.25804 -6.17742,23.40012 -0.3326,7.65191 -0.72924,10.19116 -2.05956,13.18503 -4.34909,9.78763 -15.80476,14.91141 -25.54475,11.4254 z"
   id="path7"
   transform="scale(0.01041667)" /></g>
 <rect
   class="fil5"
   width="6.82666"
   height="6.82666"
   id="rect5" />
</svg>
